<svg width="24" height="24" viewBox="0 0 24 24" fill="none" xmlns="http://www.w3.org/2000/svg">
<g opacity="0.8">
<path d="M22.56 16.3001L14.89 3.58006C14.5798 3.09488 14.1525 2.69558 13.6475 2.419C13.1424 2.14241 12.5758 1.99744 12 1.99744C11.4241 1.99744 10.8576 2.14241 10.3525 2.419C9.84743 2.69558 9.42012 3.09488 9.10998 3.58006L1.43998 16.3001C1.16903 16.7517 1.02177 17.2667 1.01299 17.7934C1.00421 18.32 1.13423 18.8396 1.38998 19.3001C1.68566 19.8183 2.11364 20.2488 2.63018 20.5475C3.14672 20.8462 3.7333 21.0023 4.32998 21.0001H19.67C20.2627 21.0064 20.8467 20.8562 21.3629 20.5648C21.879 20.2733 22.3092 19.8509 22.61 19.3401C22.8732 18.8748 23.0074 18.3477 22.9986 17.8133C22.9898 17.2788 22.8384 16.7564 22.56 16.3001ZM20.86 18.3501C20.7398 18.5567 20.5654 18.7264 20.3556 18.841C20.1459 18.9556 19.9088 19.0106 19.67 19.0001H4.32998C4.0912 19.0106 3.85409 18.9556 3.64434 18.841C3.43458 18.7264 3.26016 18.5567 3.13998 18.3501C3.05221 18.198 3.006 18.0256 3.006 17.8501C3.006 17.6745 3.05221 17.5021 3.13998 17.3501L10.82 4.62006C10.958 4.43777 11.1363 4.28992 11.3411 4.18813C11.5458 4.08634 11.7713 4.03337 12 4.03337C12.2286 4.03337 12.4541 4.08634 12.6589 4.18813C12.8636 4.28992 13.042 4.43777 13.18 4.62006L20.85 17.3401C20.9411 17.4924 20.9901 17.6662 20.9919 17.8437C20.9936 18.0212 20.9481 18.196 20.86 18.3501Z" fill="#282828"/>
<path d="M12 17C12.5523 17 13 16.5523 13 16C13 15.4477 12.5523 15 12 15C11.4477 15 11 15.4477 11 16C11 16.5523 11.4477 17 12 17Z" fill="#282828"/>
<path d="M12 8C11.7348 8 11.4804 8.10536 11.2929 8.29289C11.1054 8.48043 11 8.73478 11 9V13C11 13.2652 11.1054 13.5196 11.2929 13.7071C11.4804 13.8946 11.7348 14 12 14C12.2652 14 12.5196 13.8946 12.7071 13.7071C12.8946 13.5196 13 13.2652 13 13V9C13 8.73478 12.8946 8.48043 12.7071 8.29289C12.5196 8.10536 12.2652 8 12 8Z" fill="#282828"/>
</g>
</svg>
