<svg width="40" height="40" viewBox="0 0 40 40" fill="none" xmlns="http://www.w3.org/2000/svg">
<path d="M31.13 3.98833C31.2886 3.69733 31.5562 3.4812 31.874 3.38744C32.1919 3.29368 32.5339 3.32997 32.825 3.48833C33.3584 3.78 34.0834 4.33833 34.7984 5.20666C35.5184 6.08166 36.0734 7.11333 36.3917 8.30666C36.8252 9.90827 36.7584 11.6042 36.2 13.1667C36.0676 13.5605 35.8962 13.9402 35.6884 14.3C35.5236 14.5706 35.2621 14.7686 34.9569 14.8538C34.6517 14.9391 34.3256 14.9052 34.0444 14.7591C33.7632 14.613 33.548 14.3656 33.4423 14.0669C33.3366 13.7681 33.3483 13.4404 33.475 13.15L33.5534 13C34.1919 11.7499 34.3433 10.3071 33.9784 8.95166C33.7684 8.16109 33.3897 7.42535 32.8684 6.795C32.3784 6.2 31.9 5.83 31.6267 5.68166C31.3363 5.52255 31.1209 5.2547 31.0277 4.9369C30.9346 4.61911 30.9714 4.27736 31.13 3.98666V3.98833Z" fill="#007BFF"/>
<path d="M24.4833 25.4666C24.441 25.3079 24.3677 25.1591 24.2678 25.0287C24.1679 24.8982 24.0432 24.7888 23.901 24.7066C23.7587 24.6244 23.6016 24.5711 23.4388 24.5496C23.2759 24.5282 23.1103 24.5391 22.9517 24.5816L19.7317 25.445L19.5717 25.4983C19.2798 25.6211 19.0455 25.8501 18.9159 26.139C18.7864 26.4279 18.7713 26.7552 18.8737 27.0547C18.9761 27.3543 19.1884 27.6039 19.4677 27.753C19.7469 27.9022 20.0724 27.9398 20.3783 27.8583L23.5983 26.9966L23.76 26.9416C24.0388 26.8246 24.2656 26.6105 24.3986 26.339C24.5316 26.0675 24.5617 25.757 24.4833 25.465V25.4666Z" fill="#007BFF"/>
<path d="M25.16 9.43329C25.0324 8.95752 24.8123 8.51156 24.5122 8.12088C24.2122 7.73019 23.8382 7.40245 23.4115 7.15636C22.9848 6.91027 22.5138 6.75066 22.0253 6.68664C21.5369 6.62263 21.0407 6.65547 20.565 6.78329L12.9116 8.83829C11.9515 9.09607 11.1331 9.72454 10.6361 10.5856C10.1392 11.4466 10.0045 12.4697 10.2616 13.43L14.8516 30.5733C14.9789 31.0492 15.1987 31.4953 15.4985 31.8862C15.7982 32.2772 16.172 32.6052 16.5986 32.8516C17.0252 33.098 17.4961 33.2579 17.9845 33.3223C18.4729 33.3866 18.9692 33.3541 19.445 33.2266L27.1033 31.1766C27.5792 31.0493 28.0254 30.8296 28.4163 30.5298C28.8072 30.2301 29.1352 29.8562 29.3816 29.4297C29.628 29.0031 29.788 28.5322 29.8523 28.0438C29.9167 27.5554 29.8842 27.0591 29.7566 26.5833L25.16 9.43329ZM21.2133 9.19829C21.372 9.15543 21.5376 9.1443 21.7006 9.16551C21.8636 9.18673 22.0208 9.23988 22.1632 9.32193C22.3056 9.40398 22.4305 9.51331 22.5306 9.64367C22.6307 9.77403 22.7041 9.92285 22.7466 10.0816L27.3417 27.2316C27.4272 27.5516 27.3822 27.8925 27.2166 28.1794C27.051 28.4663 26.7782 28.6757 26.4583 28.7616L18.7983 30.8116C18.6397 30.8542 18.4743 30.8652 18.3115 30.8438C18.1487 30.8225 17.9917 30.7693 17.8495 30.6873C17.7072 30.6052 17.5826 30.496 17.4826 30.3658C17.3826 30.2355 17.3092 30.0869 17.2666 29.9283L12.6766 12.7833C12.5911 12.4633 12.6361 12.1224 12.8017 11.8355C12.9673 11.5486 13.2401 11.3392 13.56 11.2533L21.2133 9.19829Z" fill="#007BFF"/>
<path d="M30.9184 7.17004C30.788 7.06774 30.6387 6.99236 30.479 6.94829C30.3193 6.90422 30.1524 6.89234 29.9881 6.91334C29.8237 6.93433 29.6652 6.98779 29.5217 7.07059C29.3782 7.1534 29.2526 7.2639 29.1522 7.39568C29.0518 7.52746 28.9786 7.67788 28.9368 7.83821C28.8951 7.99853 28.8856 8.16556 28.909 8.32957C28.9323 8.49359 28.9881 8.65132 29.073 8.79361C29.1578 8.93589 29.2701 9.05988 29.4034 9.15838L29.4584 9.20504C29.525 9.26671 29.6234 9.36838 29.7217 9.49838C29.8446 9.6534 29.9368 9.83045 29.9934 10.02C30.0642 10.337 30.0469 10.6672 29.9434 10.975L29.86 11.2217C29.7798 11.5273 29.8183 11.8519 29.9677 12.1303C30.1172 12.4087 30.3665 12.6201 30.6655 12.7221C30.9645 12.8241 31.2911 12.8091 31.5795 12.6801C31.8679 12.5511 32.0968 12.3176 32.22 12.0267C32.2495 11.9555 32.2761 11.8833 32.3 11.81L32.3867 11.5134C32.5634 10.8267 32.6034 10.1017 32.4084 9.37338C32.2694 8.87156 32.0339 8.40168 31.715 7.99004C31.4869 7.68269 31.219 7.40695 30.9184 7.17004Z" fill="#007BFF"/>
<path d="M4.23167 25.6849C4.38959 25.4094 4.64644 25.2044 4.95007 25.1114C5.25369 25.0184 5.58133 25.0444 5.86645 25.1842C6.15156 25.324 6.37279 25.5671 6.4852 25.8641C6.5976 26.1611 6.59277 26.4897 6.47167 26.7833L6.31334 27.1049C5.78084 28.3327 5.68209 29.7052 6.03334 30.9966C6.25667 31.8299 6.63834 32.5549 7.135 33.1783C7.565 33.7149 7.985 34.0766 8.26834 34.2649L8.38 34.3349C8.52331 34.4164 8.64909 34.5254 8.75009 34.6557C8.85109 34.786 8.92532 34.935 8.96852 35.0941C9.01171 35.2532 9.023 35.4192 9.00176 35.5827C8.98051 35.7462 8.92713 35.9038 8.84471 36.0466C8.76228 36.1894 8.65243 36.3144 8.52148 36.4145C8.39053 36.5147 8.24106 36.5879 8.08169 36.6301C7.92231 36.6722 7.75618 36.6824 7.59285 36.6601C7.42952 36.6377 7.27222 36.5833 7.13 36.4999C6.605 36.1966 5.88834 35.6216 5.18334 34.7383C4.45167 33.8267 3.91809 32.7726 3.61667 31.6433C3.18268 30.0459 3.23256 28.3556 3.76 26.7866C3.92667 26.2866 4.1 25.9133 4.23167 25.6866V25.6849Z" fill="#007BFF"/>
<path d="M9.42338 27.25C9.2716 27.1872 9.10894 27.155 8.94469 27.1551C8.78044 27.1552 8.61782 27.1877 8.46613 27.2507C8.31444 27.3137 8.17666 27.406 8.06065 27.5222C7.94464 27.6385 7.85269 27.7765 7.79004 27.9284C7.76504 27.9867 7.74004 28.0584 7.71171 28.145L7.62671 28.4384C7.45338 29.1217 7.41338 29.8484 7.61005 30.575C7.74338 31.0817 7.98505 31.5417 8.29671 31.955C8.58005 32.3334 8.86671 32.6067 9.08838 32.7767C9.35164 32.9691 9.67965 33.051 10.0024 33.0049C10.3252 32.9589 10.6173 32.7885 10.8162 32.5302C11.0152 32.2719 11.1053 31.946 11.0674 31.6222C11.0295 31.2983 10.8666 31.0021 10.6134 30.7967L10.5584 30.7484C10.4623 30.6578 10.3742 30.5591 10.295 30.4534C10.172 30.2966 10.0798 30.1178 10.0234 29.9267C9.9529 29.6092 9.97019 29.2785 10.0734 28.97L10.1534 28.7234C10.23 28.4312 10.1983 28.1213 10.0641 27.8508C9.92989 27.5802 9.7023 27.3674 9.42338 27.2517V27.25Z" fill="#007BFF"/>
</svg>
